<?xml version="1.0" encoding="iso-8859-1"?>
<!-- Uploaded to: SVG Repo, www.svgrepo.com, Generator: SVG Repo Mixer Tools -->
<!DOCTYPE svg PUBLIC "-//W3C//DTD SVG 1.1//EN" "http://www.w3.org/Graphics/SVG/1.1/DTD/svg11.dtd">
<svg fill="#000000" version="1.1" id="Capa_1" xmlns="http://www.w3.org/2000/svg" xmlns:xlink="http://www.w3.org/1999/xlink" 
	 width="800px" height="800px" viewBox="0 0 583.361 583.361"
	 xml:space="preserve">
<g>
	<path d="M580.803,272.086c0-0.612,0-0.612,0-1.224c-10.404-52.02-71.604-86.292-114.444-107.1
		c-56.304-26.928-119.952-42.84-182.376-44.676c-84.456-1.836-261.324,39.78-278.46,140.148c0,0,0,0,0,0.612
		c-4.284,2.448-7.344,7.956-4.284,13.464c64.26,108.323,167.688,194.003,298.043,190.943
		c108.937-2.448,243.576-74.664,282.744-180.54C584.475,278.818,583.251,274.534,580.803,272.086z M193.407,243.322
		c16.524-47.124,55.692-61.812,98.532-72.216c1.224,0.612,2.448,0.612,3.672,0.612c82.008,0,137.088,82.62,101.592,154.835
		c-32.436,66.096-127.908,90.576-183.6,40.393C179.942,336.958,179.331,283.714,193.407,243.322z"/>
	<path d="M353.139,221.902c-15.912-19.584-52.021-42.84-73.44-21.42c-8.568,1.836-15.3,12.24-6.732,20.196
		c29.987,28.152-12.24,64.26-42.84,48.96c-6.12-3.06-13.464,2.448-12.852,8.568c-9.792,5.508-12.852,18.359-12.24,30.599
		c1.224,19.584,16.524,34.272,31.824,44.064c39.78,27.54,95.472,22.644,126.072-15.912
		C388.635,303.298,378.23,253.727,353.139,221.902z"/>
</g>
</svg>