<?xml version="1.0" encoding="iso-8859-1"?>
<!-- Uploaded to: SVG Repo, www.svgrepo.com, Generator: SVG Repo Mixer Tools -->
<!DOCTYPE svg PUBLIC "-//W3C//DTD SVG 1.1//EN" "http://www.w3.org/Graphics/SVG/1.1/DTD/svg11.dtd">
<svg fill="#000000" version="1.1" id="Capa_1" xmlns="http://www.w3.org/2000/svg" xmlns:xlink="http://www.w3.org/1999/xlink" 
	 width="800px" height="800px" viewBox="0 0 573.471 573.471"
	 xml:space="preserve">
<g>
	<path d="M377.631,180.344C364.166,117.92,335.402-13.66,266.247,8.984c-30.6,9.792-47.124,50.796-58.14,77.112
		c-14.076,33.048-25.092,71.604-26.316,108.324C136.503,181.568,2.475,145.46,0.027,220.736
		c-1.224,34.884,39.78,66.096,63.648,84.456c21.42,17.136,50.796,40.392,78.948,51.408c-22.644,29.987-39.168,66.708-52.632,100.979
		c-13.464,34.272-26.928,75.276,7.344,100.368c55.692,41.004,149.94-66.708,182.988-113.832
		c43.452,35.496,169.524,146.268,210.528,72.828c16.523-29.988-10.404-73.44-24.48-98.532c-11.016-18.972-29.376-58.14-50.184-76.5
		c29.988-17.748,60.588-35.496,88.74-56.304c23.867-17.136,68.544-47.736,68.544-81.396
		C573.471,133.22,431.486,172.388,377.631,180.344z"/>
</g>
</svg>