<?xml version="1.0" encoding="iso-8859-1"?>
<!-- Uploaded to: SVG Repo, www.svgrepo.com, Generator: SVG Repo Mixer Tools -->
<!DOCTYPE svg PUBLIC "-//W3C//DTD SVG 1.1//EN" "http://www.w3.org/Graphics/SVG/1.1/DTD/svg11.dtd">
<svg fill="#000000" version="1.1" id="Capa_1" xmlns="http://www.w3.org/2000/svg" xmlns:xlink="http://www.w3.org/1999/xlink" 
	 width="800px" height="800px" viewBox="0 0 280.423 280.423"
	 xml:space="preserve">
<g>
	<path d="M133.254,0.229c-3.06-0.612-4.896,0-6.732,1.836c-1.836,0.612-3.672,1.836-4.284,4.896
		c-0.612,4.284-0.612,9.18-1.224,13.464c0,2.448,0,4.896-0.612,6.732c0,1.224,0,2.448,0,3.672c0,0.612,0,0.612,0,1.224
		c0,0.612,0,0.612,0,1.224c-0.612,2.448,0.612,4.896,3.06,5.508c0,2.448,0.612,4.896,3.672,6.12
		c56.917,37.332,75.889,162.792,2.448,191.556c-1.224,0.612-1.836,1.224-2.448,1.836c-1.224,0.612-3.06,1.224-3.672,3.061
		c-3.672,9.18-4.284,18.359-4.896,28.151c0,3.061,2.448,6.12,5.508,7.344C264.223,315.409,257.49,29.605,133.254,0.229z"/>
	<path d="M109.998,161.185c-0.612-2.447-3.06-4.896-4.896-4.896c-14.076-2.448-28.152-3.672-42.84,0
		c-2.448,0.612-4.284,2.448-4.896,4.896c-1.836,9.181-4.896,25.093,3.672,31.212c1.836,1.225,5.508,1.225,7.344-0.611
		c6.12,7.344,22.644,4.896,31.212,3.672c3.06-0.612,4.896-1.836,6.12-4.896C109.386,181.381,111.834,170.977,109.998,161.185z"/>
	<path d="M105.102,72.445c-14.076,0-28.152,1.836-42.84,1.836c-3.06,0-6.732,2.448-7.344,5.508
		c-1.836,9.792-6.12,32.436,5.508,37.332c1.224,0.612,3.06,0,4.284-0.612c0.612,1.224,1.836,2.448,3.672,1.836
		c11.016,0,22.032,0.612,32.436,1.224c3.672,0,6.12-3.06,6.732-6.732c1.224-10.404,2.448-20.808,4.284-31.212
		C113.058,76.729,110.61,72.445,105.102,72.445z"/>
</g>
</svg>