<?xml version="1.0" encoding="iso-8859-1"?>
<!-- Uploaded to: SVG Repo, www.svgrepo.com, Generator: SVG Repo Mixer Tools -->
<!DOCTYPE svg PUBLIC "-//W3C//DTD SVG 1.1//EN" "http://www.w3.org/Graphics/SVG/1.1/DTD/svg11.dtd">
<svg fill="#000000" version="1.1" id="Capa_1" xmlns="http://www.w3.org/2000/svg" xmlns:xlink="http://www.w3.org/1999/xlink" 
	 width="800px" height="800px" viewBox="0 0 376.608 376.608"
	 xml:space="preserve">
<g>
	<path d="M341.664,245.003c-0.612-25.092-1.836-50.796-3.672-75.888c-2.448-29.376-8.568-57.528-3.672-86.904
		c0-1.224,0-1.836,0-2.448c2.447-1.224,3.06-4.896,0.611-6.732l-0.611-0.612c0-3.06-3.061-6.12-6.12-5.508
		c-5.508-6.12-8.568-14.688-9.181-23.256c-0.611-6.12,0.612-12.24,3.673-17.748c3.06-6.12,8.567-7.344,13.464-10.404
		c2.447-1.224,3.06-3.672,2.447-5.508c0.612-4.896-3.06-10.404-9.792-8.568C259.044,20.399,181.32,3.875,110.328,0.203
		c-31.212-1.836-66.096,8.568-69.156,39.78v0.612c-12.852,47.736-4.284,95.472-1.224,143.82
		c1.836,39.168-6.732,77.724-4.896,116.892c2.448,65.484,64.872,72.828,118.728,74.664c36.108,1.225,72.829,0.612,108.936-1.224
		c20.196-1.224,59.977,1.836,72.216-18.972c5.509-8.568,4.896-22.645,5.509-32.437C342.276,297.022,342.888,271.319,341.664,245.003
		z M267,200.938c1.224-12.852,3.672-25.704,6.12-38.556c-2.448,14.076-4.896,28.152-6.12,42.84C267,203.999,267,202.775,267,200.938
		z M87.072,351.491c-12.24-3.672-20.196-9.792-26.316-17.137c9.792,8.568,22.644,15.912,34.884,19.584
		C93.192,353.327,90.132,352.715,87.072,351.491z M60.144,58.343c-25.704-38.556,36.108-42.84,57.528-42.228
		c23.256,1.224,47.124,2.448,70.38,4.896c39.168,3.672,80.784,7.956,120.564,1.224c-6.12,14.688-4.284,35.496,4.896,47.736
		c-38.556,6.12-77.724,4.284-116.279,7.956C159.9,81.599,84.624,95.063,60.144,58.343z M248.64,314.159c0,0.611,0,0.611,0,1.224
		c-6.731-0.612-14.076-1.224-20.808-1.836C234.563,314.159,241.296,314.159,248.64,314.159z"/>
</g>
</svg>