<?xml version="1.0" encoding="iso-8859-1"?>
<!-- Uploaded to: SVG Repo, www.svgrepo.com, Generator: SVG Repo Mixer Tools -->
<!DOCTYPE svg PUBLIC "-//W3C//DTD SVG 1.1//EN" "http://www.w3.org/Graphics/SVG/1.1/DTD/svg11.dtd">
<svg fill="#000000" version="1.1" id="Capa_1" xmlns="http://www.w3.org/2000/svg" xmlns:xlink="http://www.w3.org/1999/xlink" 
	 width="800px" height="800px" viewBox="0 0 377.254 377.254"
	 xml:space="preserve">
<g>
	<path d="M372.584,159.111c-0.612-4.284-1.225-8.568-1.837-12.852C359.731,86.284,310.159,44.056,254.468,22.635
		c-3.672-2.448-7.344-4.284-11.017-6.12c-2.447-1.224-4.896-1.224-6.731,0c-12.24-3.672-25.092-6.12-37.332-7.956
		C111.26-2.457,25.579,52.011,8.443,140.751c0,0.612,0,1.224-0.612,1.836C3.547,156.664,1.1,171.352,1.1,186.04
		c-12.853,100.368,89.352,173.196,182.376,182.988c49.572,4.896,101.592-6.732,140.148-38.557
		c17.136-14.076,29.376-33.048,37.332-53.855c8.567-13.464,12.852-34.885,14.075-44.676
		C377.479,209.907,379.315,182.368,372.584,159.111z M58.016,298.646c-11.628-11.628-20.809-23.867-26.929-37.331
		c0.612,0.611,1.225,1.224,1.837,1.836c6.731,11.016,14.075,22.031,22.644,31.823c2.448,2.448,4.284,4.896,6.732,7.345
		C61.075,301.095,59.239,299.871,58.016,298.646z M164.503,26.919c-2.447-0.612-5.508-0.612-7.955-1.224c-1.225,0-1.837,0-2.448,0
		c3.672-0.612,7.344-1.224,11.016-1.224C164.503,25.083,164.503,26.308,164.503,26.919z M210.403,234.999
		c-1.224,10.404-3.672,26.928,0,39.168c-6.12,0-12.852,1.836-18.972,1.836c-4.284,0-9.181,0-14.076,0
		c-1.836-32.436,2.448-63.647,3.672-96.083c6.12,0.612,12.24,0.612,18.36,0.612c3.06,0,8.568,1.224,13.464,1.224
		C212.239,200.115,212.239,217.251,210.403,234.999z M170.012,141.976c-1.225-7.956-1.225-15.912-1.225-23.868
		c14.688-2.448,29.376-4.284,44.677-4.896c0.611,9.792,1.224,18.972,1.836,28.764C200,143.2,184.699,143.2,170.012,141.976z
		 M303.428,74.655c-6.732-6.732-13.464-12.852-20.809-18.36c11.017,7.956,22.032,17.136,31.824,26.928
		C310.771,80.775,307.1,77.715,303.428,74.655z M345.044,271.719c-0.612,1.836-1.225,3.672-1.836,4.896l-0.612,0.611
		c-3.672,4.896-7.956,9.792-11.628,14.076C335.863,285.183,340.76,278.451,345.044,271.719z"/>
</g>
</svg>