<?xml version="1.0" encoding="iso-8859-1"?>
<!-- Uploaded to: SVG Repo, www.svgrepo.com, Generator: SVG Repo Mixer Tools -->
<!DOCTYPE svg PUBLIC "-//W3C//DTD SVG 1.1//EN" "http://www.w3.org/Graphics/SVG/1.1/DTD/svg11.dtd">
<svg fill="#000000" version="1.1" id="Capa_1" xmlns="http://www.w3.org/2000/svg" xmlns:xlink="http://www.w3.org/1999/xlink" 
	 width="800px" height="800px" viewBox="0 0 381.556 381.556"
	 xml:space="preserve">
<g>
	<path d="M176.488,379.405c113.832,11.628,195.839-78.947,204.408-186.048c4.284-51.408-12.24-101.592-50.796-135.864
		c-20.809-18.36-50.185-36.108-80.784-43.452C152.008-29.411,33.28,42.806,6.352,142.562
		C-24.86,257.006,63.268,367.777,176.488,379.405z M115.9,301.682c-0.612-1.836-1.224-3.672-2.448-5.508
		c2.448,2.447,4.284,4.284,6.732,6.731C118.348,302.905,117.124,302.294,115.9,301.682z M195.459,69.122
		c38.557,40.392,66.097,92.412,110.16,127.296c1.224,3.06,2.448,6.731,3.061,10.403c-23.257,3.061-47.124,6.12-70.381,2.448
		c-3.06-0.612-5.508,0.612-7.344,2.448c-1.836,0.611-3.672,2.448-3.672,4.896c0.612,22.645,2.448,44.677,4.284,67.32
		c-26.316,1.836-53.856,8.568-80.171,3.672c-15.3-3.06,3.672-51.408,1.224-66.096c1.224-3.061,0-7.956-4.284-9.181
		c-11.016-3.06-23.256-1.224-34.884-0.611c-4.896,0-10.404,0-15.3,0.611C125.692,161.534,148.948,104.005,195.459,69.122z"/>
</g>
</svg>