<?xml version="1.0" encoding="iso-8859-1"?>
<!-- Uploaded to: SVG Repo, www.svgrepo.com, Generator: SVG Repo Mixer Tools -->
<!DOCTYPE svg PUBLIC "-//W3C//DTD SVG 1.1//EN" "http://www.w3.org/Graphics/SVG/1.1/DTD/svg11.dtd">
<svg fill="#000000" version="1.1" id="Capa_1" xmlns="http://www.w3.org/2000/svg" xmlns:xlink="http://www.w3.org/1999/xlink" 
	 width="800px" height="800px" viewBox="0 0 554.009 554.009"
	 xml:space="preserve">
<g>
	<path d="M539.273,249.116c-6.732-69.768-32.437-138.312-80.172-189.72C405.857,2.48,328.745-7.312,255.917,4.316
		C111.485,26.96-6.63,167.108,16.013,315.823c11.628,76.5,54.468,136.477,114.444,184.212
		c47.124,36.721,110.16,66.097,168.912,48.96c1.836,2.448,4.284,4.284,8.568,4.896c60.588,1.836,126.684-59.977,167.076-99.756
		C531.317,398.443,546.006,325.004,539.273,249.116z M405.245,397.22c-15.912,16.523-36.72,34.884-59.363,48.96
		c-29.376,9.18-59.977,12.24-93.024,7.956c-24.48-3.672-48.348-13.464-68.544-27.54c-22.032-26.929-36.72-60.588-45.9-93.024
		c-14.688-50.184-10.404-99.755,12.24-140.147c12.24-12.852,23.256-25.704,32.436-39.78c14.688-12.852,31.824-23.868,51.408-32.436
		c99.144-41.004,187.272,20.196,209.304,119.34C457.266,296.852,446.249,354.991,405.245,397.22z"/>
	<path d="M365.466,213.62c-29.376,29.988-48.96,66.708-81.396,94.247c-20.196-25.704-42.84-52.019-74.664-61.199
		c-9.18-2.448-14.076,9.792-6.12,14.688c29.376,17.748,50.184,44.064,70.992,70.379c3.06,3.672,9.792,4.284,13.464,1.836
		c34.884-25.704,80.172-67.931,93.636-110.159C385.05,213.62,372.197,206.888,365.466,213.62z"/>
	<path d="M281.01,129.776c0,7.956,1.224,16.524-0.612,24.48c-1.224,7.344,9.18,12.852,12.852,5.508
		c4.284-9.18,5.509-20.196,5.509-29.988C298.758,118.76,281.621,118.76,281.01,129.776z"/>
	<path d="M178.193,280.939c-5.508-4.284-9.18-3.672-15.3-3.06c-5.508,0.611-11.016-0.612-17.136-1.224
		c-7.344-0.612-7.344,9.18-1.836,11.627c5.508,2.448,11.016,3.061,16.524,3.672c6.732,0.612,11.628,1.836,17.136-2.447
		C180.642,287.672,180.642,282.775,178.193,280.939z"/>
	<path d="M290.802,415.579c-1.225-10.403-16.524-11.016-16.524,0c0,8.568,3.672,17.137,4.284,25.704
		c1.224,7.344,11.628,4.896,12.24-1.836C292.025,432.104,291.413,423.535,290.802,415.579z"/>
	<path d="M438.905,266.252c-1.836-1.836-3.672-2.448-6.12-2.448h-0.611l0,0c-0.612,0-1.225,0-1.837,0h-0.611c0,0,0,0-0.612,0
		c-1.224,0-1.836,0-3.06,0c-3.061,0-6.732,0.612-9.792,0.612c-9.181,0.612-9.181,13.464,0,14.075c3.06,0,6.731,0.612,9.792,0.612
		c0.611,0,5.508,0.612,3.06,0c0.612,0,0.612,0,1.224,0c0.612,0,1.837,0,2.448,0c1.836,0,4.284-0.612,5.508-2.448
		c1.836-1.836,2.448-3.672,2.448-5.508C441.354,270.536,440.741,268.7,438.905,266.252z"/>
</g>
</svg>